<?xml version="1.0" encoding="UTF-8"?>
<svg id="Lag_2" data-name="Lag 2" xmlns="http://www.w3.org/2000/svg" viewBox="0 0 84.59 102.93">
  <defs>
    <style>
      .cls-1 {
        fill: #fff;
      }

      .cls-1, .cls-2 {
        stroke: #f6f1e7;
        stroke-miterlimit: 10;
      }

      .cls-2 {
        fill: none;
      }
    </style>
  </defs>
  <g id="Lag_1-2" data-name="Lag 1">
    <g>
      <path class="cls-2" d="M13.93,40.98s24-20,25-22c0,0,15-19,22-18,0,0,10-3,15,6,0,0,5,5-4,28-3.02,9.9-.48,25.67-10,42-.3,6.19-31.07,32.65-55,12-8.72-6.57-10.49-30.78,7-48Z"/>
      <path class="cls-2" d="M34.93,38.98s14-6,18,3c2.43,1.58,3.95,13.44-3,26-2.65,4.79-3.01,7.5-16.5,11.5,0,0-15,0-17-11,0,0-6-15,11-26,0,0,3-2,7.5-3.5Z"/>
      <path class="cls-1" d="M20.93,60.98s2-14,16-18"/>
      <path class="cls-2" d="M36.93,62.39s9-8.41,9-16.41"/>
      <path class="cls-2" d="M48.91,42.98s2.98,5.45,0,13.22"/>
      <path class="cls-2" d="M26.93,72.98s13,1.83,19-10.59"/>
      <path class="cls-2" d="M22.31,73.07s1.62,3.91,8.62,2.91"/>
      <path class="cls-2" d="M50.93,56.98s-1,8.88-6.5,13.44"/>
      <path class="cls-2" d="M8.43,90.48c19.9,22.51,80.58,14.75,74.41-36.3-1.41-11.7,8.52-41.65-11.41-51.7"/>
      <path class="cls-2" d="M41.43,73.07s-1.66,2.18-6.23,3.07"/>
      <path class="cls-2" d="M77.32,28.23s1.61-2.25,1.61-6.25"/>
      <path class="cls-2" d="M77.93,32.98s-4,4-4,7"/>
      <path class="cls-2" d="M77.93,39.98s-1.23,4-.61,6"/>
      <path class="cls-2" d="M73.93,48.59s1.2,4.39-1.4,8.39"/>
      <path class="cls-2" d="M77.93,56.2s0,6.78-1,6.78"/>
      <path class="cls-2" d="M73.37,60.98s.59,7.19-5.42,12.09"/>
      <path class="cls-2" d="M78.93,67.73s-.57,4.43-1.79,5.34"/>
      <path class="cls-2" d="M73.37,73.07s-2.44,4.91-4.44,4.91"/>
      <path class="cls-2" d="M65.88,80.48s-2.95,6.5-7.95,7.5"/>
      <path class="cls-2" d="M65.88,85.78s-1.95,5.2-6.95,6.2"/>
      <path class="cls-2" d="M74.21,79.13s-1.28,5.85-5.28,8.85"/>
      <path class="cls-2" d="M61.92,94.75s-3.08,3.68-7.04,2.93"/>
      <path class="cls-2" d="M53.77,92.58s-3.82,4-7.33,3.08"/>
      <path class="cls-2" d="M46.43,98.8c-.29.36-3.22,1.99-6.11,1.28"/>
      <path class="cls-2" d="M26.51,99.07s3.4,2.06,8.78-.14"/>
    </g>
  </g>
</svg>