<?xml version="1.0" encoding="UTF-8"?>
<svg id="Lag_2" data-name="Lag 2" xmlns="http://www.w3.org/2000/svg" viewBox="0 0 71.94 157.76">
  <defs>
    <style>
      .cls-1 {
        fill: none;
        stroke: #f6f1e7;
        stroke-miterlimit: 10;
      }
    </style>
  </defs>
  <g id="Lag_1-2" data-name="Lag 1">
    <g>
      <path class="cls-1" d="M5.56,49.19l7,81s0,8,8,10c0,0,22,5,33-2,0,0,5-2,5-7l7.6-82s-26.6,18-60.6,0Z"/>
      <path class="cls-1" d="M51.56,29.19S2.56,27.19.56,38.19s46,10,46,10c0,0,23.75-4.12,24.88-9.56,0,0-.88-6.44-13.88-7.44l7-29s-2-3-6-1l-13,52"/>
      <line class="cls-1" x1="52.56" y1="51.19" x2="58.61" y2="26.84"/>
      <path class="cls-1" d="M44.61,39.02s-37.78,1.48-34.42,6.33"/>
      <path class="cls-1" d="M15.56,83.19s-3-2.86,0-7.43c0,0,9.47-8.48,11.73-8.03,0,0,2.27-1.54,7.27,4.46,0,0,6,4,5,7s.11,5.05.11,5.05c0,0-3.51,1.14-3.81,5.04l-.3,3.9s1,1-6,5c0,0-9-5-12-7,0,0-1-6-2-8Z"/>
      <path class="cls-1" d="M17.56,78.19s5.47,5.57,9.73,6.28c0,0,6.08-2.26,8.67-5.27"/>
      <line class="cls-1" x1="27.29" y1="87.91" x2="27.29" y2="92.27"/>
      <path class="cls-1" d="M58.61,82.87s-7.05-10.68-11.05-6.68l-7.89,8.05"/>
      <path class="cls-1" d="M50.57,79.77s-8.01,10.42-5.01,13.42l5.01,6.88"/>
      <path class="cls-1" d="M35.86,98.19s6.7,8,10.7,8c0,0,8.05-.25,9.02-6.12l3.02-9.17"/>
      <line class="cls-1" x1="41.56" y1="92.19" x2="39.67" y2="94.56"/>
      <path class="cls-1" d="M31.56,102.19s-12,2-12,8c0,0-3,14.82,0,14.41,0,0,7,9.63,12,7.11,0,0,11-4.58,10-10.55l1-4.97s2.22-.69-2.89-5.35l-5.11-4.65"/>
      <polyline class="cls-1" points="24.56 108.19 33.56 118.19 39.67 116.11"/>
      <path class="cls-1" d="M30.64,126.66l2.93-8.47"/>
      <path class="cls-1" d="M14.23,142.46s25.43,17.27,44.38-1.58"/>
      <path class="cls-1" d="M.56,38.19l9.42,106.13s1.58,8.87,11.58,10.87c0,0,15.1,6.59,37.05-3.71,0,0,3.95-1.29,3.95-12.29l8.88-100.56"/>
      <path class="cls-1" d="M63.33,43.95s1.28-3.06-7.75-3.41"/>
      <line class="cls-1" x1="43.04" y1="39.09" x2="49.09" y2="39.09"/>
    </g>
  </g>
</svg>