<?xml version="1.0" encoding="UTF-8"?>
<svg id="Lag_2" data-name="Lag 2" xmlns="http://www.w3.org/2000/svg" viewBox="0 0 75.32 56.1">
  <defs>
    <style>
      .cls-1 {
        fill: none;
        stroke: #f6f1e7;
        stroke-miterlimit: 10;
      }
    </style>
  </defs>
  <g id="Lag_1-2" data-name="Lag 1">
    <g>
      <g>
        <line class="cls-1" x1="5.39" y1="24.8" x2="8.05" y2="25.79"/>
        <path class="cls-1" d="M2.32,21.06s-6.86,3.77,6.07,7.89c0,0,6.3,2.06,11.61,4.59,0,0,49.68-12.16,51.5-15.81,0,0,5.82-6.66-15.18-13.66,0,0-23.01-8-38,0,0,0-3,3.16,0,6.08L2.32,21.06Z"/>
        <polyline class="cls-1" points="3.4 23.29 5.32 21.06 20 11.28 18.31 10.13"/>
        <path class="cls-1" d="M.51,23.79v6.4s.68.7,1.55,1.47,1.94,1.6,2.71,1.87c0,0,16.54,7.53,18.54,5.53l34.07-10.1,9.3-2.76s4.48-2.04,5.55-4.59l-.21-4.89"/>
        <path class="cls-1" d="M.5,36.1v4.99s.98,2.46,2.9,3.21l18.29,7.8s5,.04,5.81,0l16-5.04s-2.82,6.02,2,7.01c0,0,8.3,4.62,10.56-2.19,0,0-.81-2.91-4.28-3.86,0,0-5.46-5.95-.46-10.95,0,0,1.84-5.73,3.42-6.86l9.08-3.15"/>
        <path class="cls-1" d="M25.32,38.06s2.66,2.68,7.83.34c0,0,5.63-3.75,9.4.96"/>
        <path class="cls-1" d="M49.03,36.1s-2.71,1.95-1.71,7.95"/>
        <path class="cls-1" d="M38.91,41.32l-14.6,4.74c-2,1-14.59-4.74-14.59-4.74,0,0-6.41-2.26-8.16-4.58s0-3.21,0-3.21"/>
        <path class="cls-1" d="M45.5,49.17s.24,2.97,3.53,2.93"/>
        <path class="cls-1" d="M49.81,39.17l18.94-5.64s6.57-2.47,5.57-5.47c0,0,.39-2.76-4.31-3.88"/>
        <path class="cls-1" d="M52.02,35.1s2.57.19,8.94-3.43l5.73-5.48"/>
        <path class="cls-1" d="M68.71,25.08s4.68,1.25,1.65,5.11c0,0-3.76,2.09-9.4,1.48"/>
        <path class="cls-1" d="M8.62,35.19s.47,2.42,6.83,4.89,6.24.99,6.24.99c0,0,1.66-.6,4.39.44s7.13-.44,7.13-.44c4.47-.97,9.44.37,10.29,5.99"/>
      </g>
      <path class="cls-1" d="M20,7.05s4.82-5.49,21.82-3.49c0,0,18,1,24,9,0,0,2.7,4.32.35,5.16"/>
      <path class="cls-1" d="M50.2,44.75s24.22-5.11,24.61-9.65l-.1-7.04"/>
    </g>
  </g>
</svg>