<?xml version="1.0" encoding="UTF-8"?>
<svg id="Lag_2" data-name="Lag 2" xmlns="http://www.w3.org/2000/svg" viewBox="0 0 112.57 101.58">
  <defs>
    <style>
      .cls-1 {
        fill: none;
        stroke: #f6f1e7;
        stroke-miterlimit: 10;
      }
    </style>
  </defs>
  <g id="Lag_1-2" data-name="Lag 1">
    <g>
      <path class="cls-1" d="M6.17,48.3s24.11-26.75,63.56-12.87c0,0,23.44,10.87,22.44,29.87-11.91,49.89-115.28,30.53-86-17Z"/>
      <path class="cls-1" d="M9.74,49.95s22.12-24.03,58.31-11.57c0,0,21.51,9.77,20.59,26.84,0,0-1.83,17.07-28.44,25.16,0,0-29.36,7.19-47.71-10.78,0,0-15.6-13.48-2.75-29.65Z"/>
      <path class="cls-1" d="M8.05,80.19s7.12,15.11,20.12,18.11c7.18,3.81,44.17,7.81,55.84-18.11"/>
      <path class="cls-1" d="M68.17,93.3s1,0,7-4"/>
      <path class="cls-1" d="M11.35,78.47s-4.82-7.15,0-16.16c0,0,6.82-15.01,27.82-17.01,0,0,22-4,38,10,0,0,10.75,10.35,2.88,23.17"/>
      <path class="cls-1" d="M13.17,51.3s-5.23,4-5.12,8"/>
      <path class="cls-1" d="M18.17,73.3s-6.32-5.25,1.34-12.63c0,0,5.66-1.37,7.66-7.37,0,0,4-5,11-3-1.16.2.81.89,14-2,0,0,10,1,11,6-2.19-.59,4.55,1.08,7,3,0,0,6,5.32,1.5,11.66,0,0-4.35,1.69-4.92,9.51,0,0-1.58,6.83-12.58,6.83,0,0-9-3-16-1,0,0-8.61,2.35-14.3-5.83,0,0-.7-2.17-5.7-5.17Z"/>
      <path class="cls-1" d="M33.56,59.62s6.76-8.14,17.81-3.92c0,0,6.57,3.31,6.29,9.09,0,0-.56,5.78-8.69,8.52,0,0-8.97,2.43-14.57-3.65,0,0-4.76-4.57-.84-10.04Z"/>
      <path class="cls-1" d="M14.17,53.3s-4.24,2.72-6.12,9.86"/>
      <path class="cls-1" d="M21.8,65.3s-2.63,4,1.37,7"/>
      <path class="cls-1" d="M29.17,76.3s3.08,4.78,7.54,3.89"/>
      <path class="cls-1" d="M51.17,81.3s5,3,6.5,0"/>
      <path class="cls-1" d="M54.42,80.19s8.57-.89,8.66-7.89"/>
      <path class="cls-1" d="M58.75,56.35s5.91.6,6.16,5.27"/>
      <path class="cls-1" d="M68.17,63.16s3,1.14,0,3.64"/>
      <path class="cls-1" d="M71.67,36.44c8.79,6.89,23.25-21.69,33.5-22.14,0,0,8,0,6,7-3,6.9-26.85,12.64-27.16,24.54"/>
      <path class="cls-1" d="M86.16,48.3s-3.06-6.75,9.47-12.87c0,0,15.17-6.9,15.85-13.02,0,0,1.32-3.98,0-5.04"/>
      <path class="cls-1" d="M98.95,24.02s.21-6.72,7.21-5.72c0,0,2,1-2,5,0,0-5.43,3.43-5.21.72Z"/>
    </g>
  </g>
</svg>